<svg xmlns="http://www.w3.org/2000/svg" width="4000" height="4500" viewBox="0 0 4000 4500">
  <metadata><?xpacket begin="﻿" id="W5M0MpCehiHzreSzNTczkc9d"?>
<x:xmpmeta xmlns:x="adobe:ns:meta/" x:xmptk="Adobe XMP Core 5.6-c142 79.160924, 2017/07/13-01:06:39        ">
   <rdf:RDF xmlns:rdf="http://www.w3.org/1999/02/22-rdf-syntax-ns#">
      <rdf:Description rdf:about=""
            xmlns:xmp="http://ns.adobe.com/xap/1.0/">
         <xmp:CreatorTool>Adobe Photoshop CC 2018 (Windows)</xmp:CreatorTool>
      </rdf:Description>
   </rdf:RDF>
</x:xmpmeta>
                                                                                                    
                                                                                                    
                                                                                                    
                                                                                                    
                                                                                                    
                                                                                                    
                                                                                                    
                                                                                                    
                                                                                                    
                                                                                                    
                                                                                                    
                                                                                                    
                                                                                                    
                                                                                                    
                                                                                                    
                                                                                                    
                                                                                                    
                                                                                                    
                                                                                                    
                                                                                                    
                           
<?xpacket end="w"?></metadata>
<defs>
    <style>
      .cls-1 {
        fill: #c9b04c;
      }

      .cls-1, .cls-10, .cls-11, .cls-12, .cls-13, .cls-14, .cls-2, .cls-4, .cls-6, .cls-7, .cls-8, .cls-9 {
        fill-rule: evenodd;
      }

      .cls-2 {
        fill: #eeeadc;
      }

      .cls-3 {
        fill: #2a281f;
      }

      .cls-4 {
        fill: #7c5b34;
      }

      .cls-5 {
        fill: #090705;
      }

      .cls-6 {
        fill: #e9e5e1;
      }

      .cls-7 {
        fill: #e6cb60;
      }

      .cls-8 {
        fill: #dfd2a3;
      }

      .cls-9 {
        fill: #0a0a09;
      }

      .cls-10 {
        fill: #6182cf;
      }

      .cls-11 {
        fill: #375eaf;
      }

      .cls-12 {
        fill: #df7979;
      }

      .cls-13 {
        fill: #6b717c;
      }

      .cls-14 {
        fill: #f5d866;
      }
    </style>
  </defs>
  <path class="cls-1" d="M670,1811c-6.818-222.84,176.218-423.96,361-510,79.46-37,381.41-52.06,719.98,60,217.9,72.12,416.99,172.24,525.02,248,238.19,167.03,429.98,394.27,556,652,87.21,178.37,99.2,349.54,150,510,17,53.68,51.39,160.79,0,218-43.86,48.84-121.43,22.84-255,15-141.11-8.28-228.38,18.18-323.11-38-83.28-49.39-110.97-115.88-149.89-172-213.55-307.94-801.56-232.04-1178-465C772.937,2141.45,674.745,1966.08,670,1811Z"/>
  <path class="cls-2" d="M572,2531c331.838-362.01,793.85-593.82,1292-585,279.69,4.95,655.9,209.41,1118,458,112.83,60.7,312.26,171.96,300,292-10.38,101.58-168.09,166.81-300,210-1117.35,365.88-1884.27,234.64-2121,25C737.218,2821.38,641.859,2686.16,572,2531Z"/>
  <ellipse class="cls-3" cx="1819" cy="2580" rx="601" ry="604"/>
  <path class="cls-4" d="M1814,2043c308.91-5.33,566.31,260.65,551,562-13.75,270.55-243.37,492.03-516,505-282.59,13.44-539.49-200.61-566-482C1254.36,2324.08,1504.53,2048.34,1814,2043Z"/>
  <ellipse class="cls-5" cx="1823.5" cy="2565.5" rx="446.5" ry="441.5"/>
  <path class="cls-6" d="M2044,2221c2.59-4.04,89.64,28.71,142,112,57.3,91.15,42.78,194.67,38,195-4.39.31,0.02-90.44-55-181C2117.35,2261.99,2041.58,2224.78,2044,2221Z"/>
  <path class="cls-6" d="M1422,2567c4.38,0.01-7.55,83.23,34,172,78.4,167.5,272.11,217.95,270,223-2.18,5.22-212.38-34.6-287-199C1394.91,2665.86,1417.11,2566.98,1422,2567Z"/>
  <path class="cls-7" d="M1323,626c226.64-78.99,473.16,101,901,300,81.28,37.806,249.14,124.5,382,256,143.16,141.69,236.31,324.8,270.69,404,112.99,260.3,174.72,493.66,300.19,735,150.09,288.72,308.06,452.73,240.15,562.5-50.74,82-198.9,87.02-293.03,67.5-153.39-31.81-244.51-144.02-307-232-103.77-146.1-207.14-350.68-240-420-113.87-240.2-271.12-446.42-346-503-175.34-132.5-567.75-216.57-608-232-63.29-24.26-214.16-100.28-330-158-209.39-104.33-319.788-169.95-345.017-285C906.766,933.039,1107.57,701.081,1323,626Z"/>
  <g id="_2alam_rosas" data-name="2alam rosas">
    <path class="cls-8" d="M2685,2451q-46.005,17.535-92,35,3.495,12.495,7,25l492,63q124.005-161.505,248-323-13.005-21.495-26-43C3104.11,2290.17,2895.62,2370.72,2685,2451Z"/>
    <path class="cls-9" d="M3057,2563l-43-31q-0.495,12-1,24l-52-15q4.995,8.505,10,17,57,21.495,114,43,14.505,4.995,29,10,12.495-49.005,25-98-10.995,15-22,30,0.495-16.995,1-34-10.5,23.505-21,47-19.995-27-40-54v61Z"/>
    <path class="cls-10" d="M1793,345q-31.005,11-62,22l870,2145,82-61q99,4.995,198,10,48.495-55.005,97-110,85.5,6.495,171,13,53.505-57.495,107-115,42,1.995,84,4Q2875.5,1275.495,2411,298c-55.67-43.059-117.73-68.941-183-73-40.94-2.546-118.35,18.76-200,50-15.56,5.952-30.42,12.1-46,18A1062.607,1062.607,0,0,1,1793,345Z"/>
    <path class="cls-11" d="M2881,2464q-99-7.005-198-14L1900,308l227-62q426,1052.5,852,2105ZM2275,206Q2764.5,1227.5,3254,2249l85,3Q2849,1218.5,2359,185Z"/>
    <path class="cls-12" d="M1721,347c-14.84-103.263-1.95-206.542,64-263,47.93-41.031,104.98-30.823,198-40,140.07-13.818,219.27-55.949,292-6,45.18,31.029,73.53,83.319,87,150Z"/>
    <path class="cls-13" d="M1717,342l643-163,21,46L1739,389Q1728.005,365.5,1717,342Z"/>
  </g>
  <path class="cls-14" d="M865,2734c10.567,113.55,228.18,194.48,391,217,98.72,13.65,247.76.98,420-52,121.43-37.35,207.39-86.73,330-120,96.68-26.23,267.09-43.08,442.92-38,258.92,7.48,416.27,87.42,675.08,98,123.56,5.05,274.74,1.51,353,105,66.47,87.9,51.57,210.89,23,285-54.03,140.14-191.43,210.52-338,262-202.66,71.18-492.35,114.18-548,120-347.98,36.41-515.98,180.37-863,225-252.19,32.43-493.19,29.09-750-45-211.958-61.15-393.827-169.78-451-225C179.352,3208.02,240.865,2544.27,401,2142c21.377-53.7,44.772-100.24,66-154,57.9-146.64,103.946-303.11,144-484,61.933-279.7,66.842-477.95,194-637,85.27-106.655,233.05-221.224,488-293,228.97-64.464,390.63-38.116,584-24,441.5,32.229,724.57-92.821,1022,84,119.16,70.841,291.83,232.816,427.97,494.5,125.47,241.18,97.23,410.26,203.03,660.5,100.11,236.79,401.02,527.48,338,638-57.77,101.3-328.65,104.74-511-15-176.14-115.67-296.78-481.61-315-511-114.92-185.35-243.26-213.45-374-388-138.63-185.08-189.98-327.1-340-360-164.18-36.01-316,127.35-478,165-147.07,34.18-311.47-30.78-445,59-93.72,63.01-194.8,254.11-208,584-6.74,168.42,27.38,275.9-31,405C1085.22,2544.62,854.352,2619.59,865,2734Z"/>
</svg>
